PathFileType	4	(X/Y/Z)	C:\Users\WrightLab\Desktop\Jo\P2_Trial40.trc
DataRate	CameraRate	NumFrames	NumMarkers	Units	OrigDataRate	OrigDataStartFrame	OrigNumFrames
100.00	100.00	       39	19	mm	100.00	1	       479
Frame#	Time	Headset_Front			Headset_Back			Headset_Left			Headset_Right			Left_Shoulder			Right_Shoulder			Sternum			C7			Left Elbow			Right Elbow			Left Wrist			Right Wrist			Left ASIS			Right ASIS			S2			Left Knee			Right Knee			Left Ankle			Right Ankle			
		X1	Y1	Z1	X2	Y2	Z2	X3	Y3	Z3	X4	Y4	Z4	X5	Y5	Z5	X6	Y6	Z6	X7	Y7	Z7	X8	Y8	Z8	X9	Y9	Z9	X10	Y10	Z10	X11	Y11	Z11	X12	Y12	Z12	X13	Y13	Z13	X14	Y14	Z14	X15	Y15	Z15	X16	Y16	Z16	X17	Y17	Z17	X18	Y18	Z18	X19	Y19	Z19	

1	0.000																									-301.79865	1082.41980	-1212.16821										-474.57718	974.57178	-1238.91260							-299.95740	424.48337	-1356.81921										
2	0.010																									-308.71143	1082.73389	-1209.81116										-479.37204	976.64240	-1233.26331							-308.50604	428.38254	-1343.89099										
3	0.020																									-315.75272	1084.28833	-1207.39783										-484.29126	978.55280	-1227.19580							-315.57086	430.21210	-1326.62927										
4	0.030																									-322.20715	1084.56604	-1204.32898										-489.34320	979.17426	-1223.87756							-324.43414	433.04010	-1309.84985										
5	0.040																									-328.06003	1085.68274	-1202.98608										-494.27710	981.54053	-1217.06824							-331.22507	433.67935	-1295.59277										
6	0.050																									-333.93796	1085.62524	-1199.80139										-498.77917	982.15930	-1215.51160							-339.00458	435.10355	-1276.94946										
7	0.060																									-339.40805	1086.44641	-1197.96826										-503.25790	984.39050	-1208.41528							-345.54321	436.51807	-1259.04346										
8	0.070																									-344.82739	1087.46130	-1194.28845										-508.01392	984.81915	-1203.45471							-352.69040	437.59311	-1241.52734										
9	0.080																									-348.63062	1087.97913	-1192.78040										-511.27316	987.40253	-1200.50122							-359.90866	439.18839	-1224.36401										
10	0.090																									-352.48746	1088.76550	-1189.00842										-515.51233	986.67993	-1193.82458							-367.81934	440.49295	-1204.49475										
11	0.100																									-355.00262	1088.59839	-1185.24658										-519.64502	987.77960	-1189.76819							-374.42618	442.24036	-1187.93481										
12	0.110																									-357.87418	1089.38403	-1180.61292										-522.31818	988.74109	-1183.05505							-383.68573	443.02411	-1169.32153										
13	0.120																									-359.68015	1089.26477	-1177.49463							-874.78204	812.48859	-1412.65344	-524.96643	987.78662	-1177.58667							-391.73117	445.59082	-1151.31677										
14	0.130																									-360.21954	1088.81189	-1175.46301							-886.82416	813.40216	-1396.77539	-527.40735	989.24951	-1170.33911							-400.19034	448.69513	-1133.96008										
15	0.140																			-618.51678	1289.75818	-1189.71948				-362.50735	1088.91931	-1169.23901							-900.65881	812.20984	-1375.61987	-529.80060	987.87439	-1167.45154							-409.07684	451.04083	-1116.58899										
16	0.150																			-620.68573	1289.23096	-1184.40454				-363.79318	1087.73462	-1165.34863							-910.72571	816.23468	-1365.29553	-533.36707	989.06714	-1163.15417							-416.44482	454.94156	-1099.67053										
17	0.160																			-624.58752	1289.85242	-1178.52942				-363.89648	1087.91821	-1160.87329							-922.62097	817.11810	-1347.96216	-536.32251	989.52985	-1153.04919							-425.43848	459.06564	-1083.70984										
18	0.170																			-627.96051	1288.59961	-1172.38147				-364.09372	1088.21509	-1157.24634							-934.74188	818.06274	-1329.13208	-539.24182	988.36462	-1148.40491							-433.67514	464.95154	-1067.44434										
19	0.180																			-630.61340	1287.59497	-1166.71545				-363.27435	1088.61951	-1153.23706							-945.53778	820.49719	-1313.44250	-542.06995	989.11188	-1145.07190							-441.25607	471.40543	-1050.61865										
20	0.190																			-632.41370	1286.81567	-1161.35730				-363.67798	1088.08252	-1147.34570							-955.88788	821.87933	-1296.29138	-544.15723	988.80609	-1134.45837							-447.83408	476.90192	-1034.74036										
21	0.200																			-635.88934	1286.49683	-1154.78369				-362.48703	1087.93359	-1143.12061							-965.83057	825.34357	-1281.92163	-547.82642	989.34680	-1129.53113							-455.43933	483.23868	-1019.55548										
22	0.210																			-638.61346	1285.08789	-1148.03577				-362.39194	1087.73254	-1138.71179							-975.50348	827.67853	-1265.87341	-550.09204	986.94934	-1125.43750							-461.65256	488.37781	-1007.72815										
23	0.220																			-641.33545	1284.01489	-1140.94946				-362.79303	1087.03455	-1132.96777							-984.86682	830.67371	-1250.58643	-552.80249	988.22217	-1115.53174							-468.58035	493.02405	-995.66248										
24	0.230																			-644.27643	1283.09766	-1133.79431				-362.53745	1085.99463	-1128.58142							-993.72321	833.63940	-1235.13416	-556.13757	986.48315	-1108.88672							-473.83533	496.59796	-986.76965										
25	0.240																			-646.08807	1282.32300	-1127.93445				-361.84213	1085.48462	-1124.25183							-1002.43512	836.27368	-1219.34338	-559.11768	986.31909	-1100.06995	-684.87115	955.38843	-1153.18799				-480.52219	497.68970	-977.82135										
26	0.250																			-649.97314	1281.31470	-1121.00354				-354.34262	1089.32520	-1099.55884				-330.45782	845.64343	-1096.30322	-1010.64185	840.01611	-1205.59705	-562.69916	984.54938	-1095.46008	-688.68658	953.87982	-1146.91077				-486.66519	498.17950	-970.31030										
27	0.260																			-651.79681	1279.62024	-1112.74451				-357.20538	1087.60620	-1099.12585				-326.19754	843.80334	-1098.33728	-1017.87146	842.71887	-1191.11926	-565.57556	982.96057	-1090.83350	-692.23071	952.96680	-1138.18848				-492.80936	497.52417	-964.54248										
28	0.270																-805.96790	1377.93726	-1209.79468	-654.36487	1279.01782	-1104.93823				-358.18909	1086.27893	-1094.49524				-324.90479	842.25317	-1097.68958	-1025.62390	845.50238	-1176.46448	-567.66113	981.29614	-1079.49915	-694.62872	950.68390	-1134.02600				-500.63141	496.76648	-959.23907										
29	0.280																-808.81244	1377.03491	-1201.18787	-657.23999	1277.62903	-1097.20593				-361.63138	1082.91406	-1093.79785				-324.70627	839.85614	-1092.30359	-1032.74133	846.88293	-1160.10095	-570.69550	981.19995	-1073.47949	-697.83826	950.97858	-1121.98035				-508.31931	495.55658	-952.46960										
30	0.290													-499.56656	1421.29382	-1100.88416	-811.61584	1375.49561	-1192.33557	-659.84845	1275.90991	-1090.07813				-362.18585	1079.51794	-1100.02478				-321.96268	837.78149	-1094.10327	-1039.11328	849.95465	-1147.39697	-574.24896	979.45636	-1063.84521	-699.12659	950.74426	-1108.64612				-516.28058	492.79703	-947.60425										
31	0.300													-502.82007	1418.89172	-1090.61182	-813.69379	1374.21619	-1184.12854	-662.84857	1273.94128	-1082.19617				-362.45593	1076.74854	-1095.76904				-320.77625	837.21228	-1091.76489	-1045.29895	851.66046	-1132.50671	-576.44507	977.52380	-1056.29382	-702.43451	948.43036	-1100.74805				-524.71539	488.25275	-943.51678										
32	0.310													-504.88318	1416.95386	-1083.19543	-816.59894	1373.42249	-1175.17932	-664.83197	1271.96790	-1073.61646				-363.14233	1078.22351	-1078.45093				-320.76099	834.05396	-1088.50488	-1051.30603	854.11279	-1119.60266	-580.54944	974.46191	-1049.63940	-705.58765	947.28046	-1093.26953				-531.48383	484.03384	-940.22205										
33	0.320				-531.99915	924.43597	-1315.04395							-506.96234	1414.86011	-1073.72681	-818.68988	1371.09058	-1165.70996	-666.75500	1270.32458	-1064.60669				-364.36423	1076.59338	-1073.06165				-319.56821	833.48279	-1086.17749	-1056.39063	855.38104	-1105.36487	-583.96533	974.07861	-1041.27856	-707.68176	944.70282	-1084.83228				-539.02026	478.54269	-936.45709										
34	0.330				-534.41107	922.15692	-1304.79260							-509.30545	1413.36096	-1067.62549	-820.88245	1369.48792	-1156.56982	-669.14313	1268.01855	-1055.48999				-364.94992	1074.36536	-1067.23047				-318.11963	831.39545	-1082.90637	-1061.38000	857.95245	-1094.09668	-586.64240	972.06219	-1031.78308	-710.78107	943.55200	-1076.36694				-546.98230	473.18011	-932.87561										
35	0.340				-537.00299	919.88251	-1295.48669							-511.18536	1410.16223	-1055.87695	-823.33374	1368.33875	-1147.60547	-671.57593	1266.56250	-1046.47217				-365.71774	1071.95142	-1061.71704				-318.35092	829.74915	-1080.58313	-1066.34924	858.77032	-1080.57581	-589.42035	969.58057	-1022.86444	-714.12390	941.70972	-1067.49939				-553.45593	468.28232	-927.74121										
36	0.350				-539.52594	918.14703	-1286.58228							-512.60278	1407.99036	-1047.26733	-825.06964	1366.32007	-1138.05615	-673.91608	1263.11841	-1037.36877	-654.29370	1385.82190	-1204.91174	-366.51147	1069.10754	-1055.30811				-315.61539	828.00586	-1081.79150	-1070.24939	859.81622	-1067.59558	-593.48511	966.65405	-1016.54950	-717.14563	939.78070	-1058.54919				-556.56274	463.08386	-927.33032										
37	0.360	-784.21729	1521.24976	-955.52155	-542.44574	915.50745	-1276.87488							-514.74561	1406.17542	-1038.09998	-827.28760	1364.43701	-1128.15100	-676.48523	1262.00793	-1028.49963	-656.12427	1383.98706	-1195.80823	-367.22534	1067.29932	-1049.32263				-315.68475	826.15643	-1076.22437	-1074.11670	861.21259	-1055.10449	-595.61603	966.01465	-1003.24866	-719.71216	937.36505	-1049.82886				-562.73218	460.31110	-915.30255	-678.58301	1460.73755	-858.48059							
38	0.370													-516.76849	1403.44226	-1029.03918	-828.94037	1363.29321	-1119.22302	-677.97601	1259.82532	-1018.35217	-657.72461	1382.11377	-1186.23950	-368.23627	1064.33655	-1042.25317				-314.25586	824.54828	-1075.34119	-1077.23315	861.73608	-1042.95190	-599.07916	962.76367	-993.90668	-723.57251	935.94781	-1040.65894				-565.44501	457.00800	-909.23718	-881.33844	1287.60950	-1660.47070							
39	0.380	-548.29596	910.75800	-1257.34583	-809.19452	306.23782	-803.29041							-518.19812	1400.95203	-1016.44183	-830.07568	1360.94031	-1109.28821	-680.05890	1257.54065	-1009.09723	-659.07544	1380.11023	-1176.10046	-369.22592	1061.67908	-1034.52881				-314.94415	821.50446	-1069.00989	-1080.07434	862.41705	-1031.06921	-602.07990	960.10132	-984.11981	-727.44598	934.19318	-1030.32605				-570.37640	452.97302	-899.66223	-883.05945	1286.57739	-1651.70264							
